<?xml version="1.0" encoding="utf-8"?>
<!-- Generator: Adobe Illustrator 26.0.2, SVG Export Plug-In . SVG Version: 6.00 Build 0)  -->
<svg version="1.1" id="Camada_1" xmlns="http://www.w3.org/2000/svg" xmlns:xlink="http://www.w3.org/1999/xlink" x="0px" y="0px"
	 viewBox="0 0 476.54 173.23" style="enable-background:new 0 0 476.54 173.23;" xml:space="preserve">
<style type="text/css">
	.st0{fill:#F2E73A;}
	.st1{fill:#010202;}
	.st2{opacity:0.5;fill:#E52923;}
	.st3{opacity:0.4;fill:#E52923;}
</style>
<line class="st0" x1="3.79" y1="41.23" x2="0" y2="40.82"/>
<line class="st0" x1="21.88" y1="0" x2="25.69" y2="0.24"/>
<g>
	<g>
		<path class="st1" d="M101.61,114.25V40.96h14.07c10.41,0,17.75,0.53,22,1.58c4.25,1.05,7.98,2.81,11.19,5.28
			c4.2,3.24,7.39,7.38,9.56,12.41c2.17,5.04,3.25,10.85,3.25,17.42c0,6.54-1.08,12.32-3.23,17.35s-5.35,9.15-9.59,12.39
			c-3.2,2.47-6.85,4.23-10.94,5.28c-4.09,1.05-10.45,1.58-19.1,1.58h-3.15H101.61z M110.42,106.04h5.56
			c9.01,0,15.25-0.39,18.72-1.18c3.47-0.78,6.36-2.13,8.66-4.03c3-2.5,5.29-5.73,6.86-9.69c1.57-3.95,2.35-8.48,2.35-13.59
			c0-5.14-0.78-9.65-2.33-13.54c-1.55-3.89-3.85-7.1-6.88-9.64c-2.3-1.93-5.23-3.31-8.79-4.13c-3.55-0.82-9.75-1.23-18.6-1.23h-5.56
			V106.04z"/>
		<path class="st1" d="M216.05,92.52h-36.29v0.7c0,4.91,1.4,8.87,4.2,11.89c2.8,3.02,6.46,4.53,10.96,4.53
			c3.07,0,5.84-0.83,8.31-2.48s4.66-4.15,6.56-7.48l5.96,4c-2.3,4.14-5.24,7.26-8.81,9.36s-7.71,3.15-12.41,3.15
			c-6.98,0-12.61-2.3-16.92-6.91c-4.31-4.61-6.46-10.65-6.46-18.12c0-7.18,2.14-13.05,6.41-17.62c4.27-4.57,9.76-6.86,16.47-6.86
			c6.78,0,12.14,2.17,16.09,6.51c3.95,4.34,5.93,10.26,5.93,17.77V92.52z M207.64,86.16c-0.27-4.04-1.61-7.15-4.03-9.34
			c-2.42-2.19-5.73-3.28-9.94-3.28c-3.8,0-6.98,1.14-9.51,3.43c-2.54,2.29-4,5.35-4.41,9.19H207.64z"/>
		<path class="st1" d="M228.26,114.25V36.65h8.01v77.59H228.26z"/>
		<path class="st1" d="M253.09,114.25v-45.8l0,0l7.91,7.01v38.8H253.09z"/>
		<path class="st1" d="M292.59,117.1l-22.68-48.66h8.81l13.77,31.99l13.82-31.99h8.81L292.59,117.1z"/>
		<path class="st1" d="M364.47,92.52h-36.29v0.7c0,4.91,1.4,8.87,4.2,11.89c2.8,3.02,6.46,4.53,10.96,4.53
			c3.07,0,5.84-0.83,8.31-2.48s4.66-4.15,6.56-7.48l5.96,4c-2.3,4.14-5.24,7.26-8.81,9.36s-7.71,3.15-12.41,3.15
			c-6.98,0-12.61-2.3-16.92-6.91c-4.31-4.61-6.46-10.65-6.46-18.12c0-7.18,2.14-13.05,6.41-17.62c4.27-4.57,9.76-6.86,16.47-6.86
			c6.78,0,12.14,2.17,16.09,6.51c3.95,4.34,5.93,10.26,5.93,17.77V92.52z M356.06,86.16c-0.27-4.04-1.61-7.15-4.03-9.34
			c-2.42-2.19-5.73-3.28-9.94-3.28c-3.8,0-6.98,1.14-9.51,3.43s-4,5.35-4.41,9.19H356.06z"/>
		<path class="st1" d="M384.14,94.41v19.84h-7.76v-40.7l0,0l7.75,6.26"/>
		<path class="st1" d="M410.42,136.57l12.41-26.83l-17.97-41.3h9.06l13.32,32.89l14.12-32.89h8.61l-30.74,68.13H410.42z"/>
	</g>
	<polygon class="st1" points="261,60.47 253.09,60.47 253.09,68.38 261,68.44 	"/>
	<rect x="26.57" y="40.72" class="st2" width="26.09" height="73.64"/>
	<rect x="39.61" y="40.72" class="st3" width="26.09" height="73.64"/>
	<rect x="60.15" y="40.72" class="st3" width="26.09" height="73.64"/>
	<polygon class="st1" points="399.9,73.55 376.38,73.57 376.38,68.44 399.9,68.44 	"/>
</g>
</svg>
